<svg width="96" height="96" viewBox="0 0 96 96" fill="none" xmlns="http://www.w3.org/2000/svg">
  <rect width="96" height="96" rx="24" fill="#FEFAE8"/>
  <path d="M48 22 L48 76" stroke="#C8A882" stroke-width="2"/>
  <path d="M16 20 Q32 16 48 22 L48 76 Q32 72 16 76 Z" fill="#E8D5B8"/>
  <path d="M80 20 Q64 16 48 22 L48 76 Q64 72 80 76 Z" fill="#F0E0C8"/>
  <rect x="14" y="18" width="4" height="58" rx="2" fill="#8B6914"/>
  <rect x="78" y="18" width="4" height="58" rx="2" fill="#A07820" opacity="0.6"/>
  <rect x="20" y="34" width="24" height="3.5" rx="1.75" fill="#E8C04A"/>
  <rect x="20" y="42" width="18" height="2.5" rx="1.25" fill="#E8C04A" opacity="0.5"/>
  <rect x="20" y="49" width="22" height="2.5" rx="1.25" fill="#E8C04A" opacity="0.5"/>
  <rect x="20" y="56" width="16" height="2.5" rx="1.25" fill="#E8C04A" opacity="0.5"/>
  <rect x="52" y="34" width="24" height="3.5" rx="1.75" fill="#E8C04A"/>
  <rect x="52" y="42" width="18" height="2.5" rx="1.25" fill="#E8C04A" opacity="0.5"/>
  <rect x="52" y="49" width="22" height="2.5" rx="1.25" fill="#E8C04A" opacity="0.5"/>
  <rect x="52" y="56" width="16" height="2.5" rx="1.25" fill="#E8C04A" opacity="0.5"/>
</svg>
